<svg xmlns="http://www.w3.org/2000/svg" width="160" height="97" viewBox="0 0 160 97" fill="none"><path d="M15.3346 49.0589C14.653 48.5962 13.9305 48.197 13.176 47.8663C12.3763 47.5152 11.5526 47.2216 10.7111 46.9882C9.98097 46.7937 9.26234 46.5585 8.5586 46.2835C7.98955 46.0665 7.44695 45.7856 6.94118 45.4463C6.53774 45.1896 6.19435 44.849 5.93437 44.4476C5.70383 44.0734 5.58416 43.6414 5.58924 43.2019C5.58605 42.7793 5.67526 42.3611 5.85065 41.9766C6.0298 41.5941 6.29215 41.2564 6.61851 40.9882C6.991 40.7002 7.41426 40.4848 7.86629 40.353C8.41656 40.1917 8.98792 40.1139 9.56135 40.1223C10.1782 40.1111 10.7924 40.2065 11.3768 40.4041C11.8565 40.5708 12.2976 40.8327 12.6736 41.174C13.0135 41.5152 13.2761 41.9253 13.4435 42.3768C13.6246 42.8681 13.7252 43.3852 13.7417 43.9085V43.9575H18.553V43.9065C18.5667 42.8519 18.3507 41.8071 17.9202 40.8443C17.4896 39.8816 16.8547 39.0241 16.0595 38.3313C15.2318 37.6278 14.2784 37.0872 13.2495 36.7383C12.0898 36.3478 10.8728 36.1546 9.64908 36.1665C8.45708 36.1568 7.2701 36.3227 6.12634 36.6587C5.10966 36.9547 4.15488 37.432 3.3081 38.0679C2.52868 38.6616 1.88935 39.4194 1.43542 40.2877C0.978369 41.1838 0.746363 42.1777 0.759451 43.1836C0.75162 44.0645 0.925417 44.9377 1.27 45.7485C1.62831 46.5582 2.1441 47.2885 2.78735 47.8969C3.55704 48.6133 4.42738 49.2133 5.37073 49.6777C6.54132 50.2619 7.76905 50.7239 9.03444 51.0562C9.80039 51.253 10.5485 51.5139 11.2706 51.8363C11.7971 52.0698 12.288 52.3765 12.7288 52.7472C13.0615 53.0472 13.3243 53.4168 13.4987 53.8294C13.6503 54.2201 13.7272 54.6358 13.7253 55.0548C13.7302 55.4732 13.6379 55.887 13.4558 56.2638C13.2739 56.632 13.0081 56.9524 12.6797 57.1991C12.3049 57.4782 11.8819 57.6859 11.432 57.8118C10.8806 57.9672 10.3097 58.0422 9.7369 58.0344C9.07116 58.04 8.40739 57.9597 7.76214 57.7954C7.20889 57.6555 6.69124 57.4009 6.24274 57.048C5.80844 56.7005 5.46505 56.2527 5.24207 55.743C4.98858 55.1324 4.85611 54.4784 4.85201 53.8172V53.7682H0.00179455V53.8193C-0.0243179 55.001 0.234876 56.1716 0.757406 57.2318C1.26037 58.2033 1.95509 59.0626 2.79961 59.758C3.75514 60.5063 4.84375 61.0669 6.00789 61.4101C7.2136 61.7802 8.46754 61.9695 9.72873 61.9717C10.924 61.9813 12.1148 61.8268 13.2679 61.5122C14.2799 61.2423 15.2309 60.7813 16.0698 60.1541C16.8734 59.5682 17.5234 58.7966 17.9644 57.9051C18.4053 57.0136 18.6241 56.0287 18.6021 55.0344C18.6241 53.842 18.3181 52.6666 17.7179 51.6362C17.0996 50.6295 16.2899 49.7539 15.3346 49.0589Z" fill="#FAF9F3"></path><path d="M36.8779 45.1522C36.1269 44.3386 35.2077 43.6982 34.1842 43.2754C33.0394 42.8143 31.8138 42.5872 30.5798 42.6077C29.3429 42.5967 28.1165 42.8371 26.9753 43.3143C25.891 43.7715 24.9133 44.4489 24.104 45.3034C23.2795 46.1859 22.6387 47.2238 22.2191 48.3565C21.7582 49.6088 21.5298 50.9348 21.5452 52.2693V52.9575C21.5372 54.1693 21.769 55.3707 22.2272 56.4926C22.6699 57.5707 23.3328 58.5444 24.1735 59.3517C25.0426 60.1876 26.0674 60.8447 27.1898 61.2856C28.4401 61.7704 29.7719 62.0109 31.1128 61.9942C32.914 61.9942 34.4947 61.6389 35.8099 60.9384C37.125 60.2379 38.1074 59.4477 38.718 58.5837L38.7404 58.5511L36.2897 55.8963L36.253 55.9452C35.6982 56.6556 34.9625 57.2037 34.123 57.5321C33.26 57.8811 32.3379 58.0607 31.4069 58.061C30.7863 58.0674 30.1696 57.9637 29.5852 57.7547C29.0426 57.5587 28.5407 57.2645 28.1047 56.8867C27.7004 56.5404 27.3604 56.1256 27.0999 55.6614C26.8135 55.1022 26.6073 54.5054 26.4872 53.8887H39.1121V51.818C39.1261 50.5427 38.9329 49.2737 38.5403 48.0603C38.192 46.9869 37.6262 45.9969 36.8779 45.1522ZM29.0869 46.8574C29.5492 46.667 30.0451 46.5718 30.5451 46.5777C31.0878 46.5675 31.6273 46.6625 32.1339 46.8574C32.567 47.0287 32.9614 47.2849 33.2939 47.6111C33.6146 47.9443 33.8682 48.336 34.0414 48.7649C34.2229 49.2124 34.3152 49.6911 34.3129 50.174V50.5008H26.5832C26.6855 49.9563 26.8535 49.4262 27.0835 48.9222C27.2949 48.4574 27.5827 48.0315 27.9351 47.6621C28.2576 47.3136 28.6502 47.0374 29.0869 46.8513V46.8574Z" fill="#FAF9F3"></path><path d="M58.0816 44.3349C57.5141 43.7406 56.8144 43.2886 56.0394 43.0156C55.2035 42.7335 54.3258 42.5954 53.4438 42.6071C52.7308 42.5983 52.0207 42.6989 51.3382 42.9053C50.6885 43.1099 50.0747 43.4144 49.5186 43.808C49.1914 44.0417 48.8841 44.3019 48.5996 44.586C48.3381 44.8485 48.0977 45.1312 47.8808 45.4315L47.601 42.9441H43.1694V61.6547H48.0707V48.3927C48.2223 48.1543 48.3959 47.9307 48.5894 47.7249C49.0455 47.2585 49.6159 46.9199 50.2436 46.7426C50.6517 46.637 51.0719 46.5854 51.4934 46.5894C51.9869 46.5832 52.4794 46.6373 52.9598 46.7507C53.3656 46.8467 53.7421 47.0401 54.0563 47.3145C54.3769 47.6182 54.6151 47.9983 54.7487 48.4192C54.9282 49.0008 55.0109 49.6079 54.9938 50.2164V61.6526H59.8767V50.149C59.9037 48.9738 59.7431 47.8018 59.4008 46.6773C59.132 45.8117 58.6823 45.0134 58.0816 44.3349Z" fill="#FAF9F3"></path><path d="M75.6546 44.5396C75.1173 43.956 74.4734 43.4804 73.7574 43.1387C72.9436 42.7719 72.0584 42.5905 71.1659 42.6076C70.0888 42.5893 69.0227 42.8274 68.0556 43.302C67.1446 43.7691 66.353 44.4391 65.7418 45.2604C65.0759 46.1703 64.5862 47.1969 64.298 48.287C63.9589 49.5521 63.7934 50.8574 63.8058 52.1672V52.5286C63.7949 53.8033 63.9633 55.073 64.3062 56.3006C64.6033 57.3808 65.0954 58.3974 65.7582 59.3006C66.3645 60.127 67.15 60.8055 68.0556 61.2856C69.0067 61.7731 70.0626 62.0199 71.1312 62.0045C72.0917 62.0216 73.0426 61.8116 73.9065 61.3918C74.6764 60.9974 75.358 60.4506 75.9099 59.7846L76.1427 61.6552H80.5559V35.1455H75.6546V44.5396ZM68.6887 52.1693C68.6853 51.4373 68.7537 50.7068 68.893 49.9881C69.0115 49.3626 69.2308 48.7606 69.5424 48.2054C69.8203 47.7253 70.2124 47.3212 70.6839 47.029C71.2005 46.7299 71.7904 46.5806 72.3872 46.5981C73.09 46.5728 73.7851 46.7516 74.3885 47.1127C74.93 47.4736 75.3667 47.971 75.6546 48.5546V56.0617C75.3605 56.6409 74.9205 57.1335 74.3783 57.4912C73.7687 57.8603 73.0646 58.0435 72.3524 58.018C71.7599 58.0361 71.1739 57.8897 70.6594 57.5954C70.1892 57.3062 69.7987 56.904 69.524 56.4252C69.2116 55.8911 68.9953 55.3063 68.8848 54.6974C68.747 53.9835 68.6786 53.2578 68.6805 52.5307L68.6887 52.1693Z" fill="#FAF9F3"></path><path d="M90.5112 61.6532H95.4616V51.283H106.194V47.2598H95.4616V40.5532H107.535V36.5117H90.5112V61.6532Z" fill="#FAF9F3"></path><path d="M116.341 35.1357H111.252V61.6537H116.341V35.1357Z" fill="#FAF9F3"></path><path d="M135.556 45.3361C134.78 44.4735 133.826 43.7881 132.761 43.3266C130.356 42.3573 127.669 42.3573 125.264 43.3266C124.21 43.7876 123.268 44.4727 122.505 45.3341C121.731 46.2135 121.142 47.2401 120.775 48.3524C120.375 49.5706 120.176 50.8461 120.187 52.1284V52.4878C120.175 53.7756 120.374 55.0566 120.775 56.2802C121.142 57.3929 121.731 58.4198 122.505 59.2986C123.271 60.1625 124.22 60.8454 125.283 61.2979C126.474 61.7921 127.754 62.0361 129.044 62.0147C130.325 62.0354 131.597 61.7914 132.779 61.2979C133.839 60.8439 134.784 60.1612 135.548 59.2986C136.313 58.4156 136.895 57.3897 137.26 56.2802C137.667 55.0576 137.872 53.7766 137.867 52.4878V52.1284C137.877 50.8461 137.679 49.5707 137.279 48.3524C136.91 47.2429 136.325 46.2176 135.556 45.3361ZM130.831 57.6383C130.289 57.9423 129.674 58.094 129.052 58.0774C128.416 58.0962 127.786 57.9447 127.229 57.6383C126.727 57.3439 126.306 56.93 126.003 56.4334C125.669 55.8915 125.433 55.2949 125.305 54.6709C125.154 53.9533 125.078 53.2214 125.083 52.4878V52.1284C125.079 51.4091 125.154 50.6916 125.305 49.9882C125.436 49.362 125.672 48.7625 126.003 48.2156C126.307 47.7204 126.728 47.3073 127.229 47.0127C127.777 46.7066 128.398 46.5542 129.026 46.5716C129.632 46.5447 130.234 46.6823 130.768 46.9699C131.303 47.2576 131.749 47.6845 132.061 48.2053C132.382 48.7557 132.612 49.3543 132.743 49.978C132.894 50.6847 132.969 51.4057 132.965 52.1284V52.4878C132.969 53.2214 132.895 53.9533 132.743 54.6709C132.615 55.2923 132.385 55.888 132.061 56.4334C131.755 56.9297 131.333 57.3436 130.831 57.6383Z" fill="#FAF9F3"></path><path d="M155.507 42.9448L154.127 53.9605L153.928 55.4471L151.647 42.9857L151.639 42.9448H148.356L146.335 54.0442L146.068 55.4921L144.493 42.9898L144.487 42.9448H140.013L143.36 61.6125L143.368 61.6534H147.649L149.636 51.6732L149.965 50.0251L152.364 61.6534H156.644L160 42.9448H155.507Z" fill="#FAF9F3"></path><path d="M70.8704 27.7937L67.9297 22.7127L105.406 1.01234C106.556 0.348308 107.861 -0.000866039 109.189 1.61306e-06C110.517 0.000869274 111.822 0.351748 112.971 1.01729C114.12 1.68282 115.074 2.63951 115.735 3.79095C116.397 4.94239 116.743 6.24791 116.741 7.57597V23.5684C116.741 23.6703 116.7 23.7679 116.627 23.8399C116.556 23.9119 116.458 23.9523 116.356 23.9523H111.25C111.149 23.9523 111.051 23.9119 110.979 23.8399C110.907 23.7679 110.867 23.6703 110.867 23.5684V7.57597C110.871 7.27632 110.793 6.98119 110.644 6.72145C110.494 6.4617 110.278 6.24689 110.018 6.09945C109.763 5.95021 109.475 5.87152 109.181 5.87152C108.887 5.87152 108.598 5.95021 108.345 6.09945L70.8704 27.7937Z" fill="url(#paint0_linear_638_1438)"></path><path d="M75.9224 96.987C73.9158 96.9781 71.9943 96.1762 70.5765 94.7556C69.1588 93.336 68.3599 91.4126 68.354 89.4065V73.4119C68.3545 73.3099 68.3955 73.2123 68.4678 73.1403C68.5401 73.0684 68.638 73.028 68.74 73.028H73.8455C73.9475 73.028 74.0454 73.0684 74.1177 73.1403C74.19 73.2123 74.2309 73.3099 74.2314 73.4119V89.4065C74.2319 89.7043 74.3105 89.9965 74.4597 90.2551C74.6088 90.5128 74.823 90.7265 75.081 90.8756C75.339 91.0247 75.6315 91.1028 75.9294 91.1037C76.2272 91.1037 76.5199 91.0255 76.7781 90.8765L114.366 69.1724L117.302 74.2554L79.7086 95.9598C78.559 96.6296 77.2529 96.9843 75.9224 96.987Z" fill="url(#paint1_linear_638_1438)"></path><defs><linearGradient id="paint0_linear_638_1438" x1="67.9297" y1="13.8904" x2="116.741" y2="13.8904" gradientUnits="userSpaceOnUse"><stop offset="0.06" stop-color="#FFDE06" stop-opacity="0"></stop><stop offset="0.15" stop-color="#FFDE06" stop-opacity="0.17"></stop><stop offset="0.27" stop-color="#FFDE06" stop-opacity="0.39"></stop><stop offset="0.4" stop-color="#FFDE06" stop-opacity="0.58"></stop><stop offset="0.53" stop-color="#FFDE06" stop-opacity="0.73"></stop><stop offset="0.65" stop-color="#FFDE06" stop-opacity="0.85"></stop><stop offset="0.77" stop-color="#FFDE06" stop-opacity="0.93"></stop><stop offset="0.89" stop-color="#FFDE06" stop-opacity="0.98"></stop><stop offset="1" stop-color="#FFDE06"></stop></linearGradient><linearGradient id="paint1_linear_638_1438" x1="68.354" y1="83.0797" x2="117.302" y2="83.0797" gradientUnits="userSpaceOnUse"><stop stop-color="#FFDE06"></stop><stop offset="0.12" stop-color="#FFDE06" stop-opacity="0.98"></stop><stop offset="0.24" stop-color="#FFDE06" stop-opacity="0.94"></stop><stop offset="0.35" stop-color="#FFDE06" stop-opacity="0.86"></stop><stop offset="0.47" stop-color="#FFDE06" stop-opacity="0.75"></stop><stop offset="0.59" stop-color="#FFDE06" stop-opacity="0.61"></stop><stop offset="0.71" stop-color="#FFDE06" stop-opacity="0.44"></stop><stop offset="0.82" stop-color="#FFDE06" stop-opacity="0.23"></stop><stop offset="0.94" stop-color="#FFDE06" stop-opacity="0"></stop></linearGradient></defs></svg>